<svg xmlns="http://www.w3.org/2000/svg" version="1.1" xmlns:xlink="http://www.w3.org/1999/xlink" xmlns:svgjs="http://svgjs.com/svgjs" width="1500" height="750" preserveAspectRatio="none" viewBox="0 0 1500 750"><g mask="url(&quot;#SvgjsMask1119&quot;)" fill="none"><rect width="1500" height="750" x="0" y="0" fill="#0e2a47"></rect><path d="M-92.39 511.71L-92.39 511.71" stroke="#132e65" stroke-width="1.5"></path><path d="M-92.39 511.71L-79.6 683.68" stroke="#132e65" stroke-width="1.5"></path><path d="M-92.39 511.71L91.13 522.66" stroke="#132e65" stroke-width="1.5"></path><path d="M-79.6 683.68L-79.6 683.68" stroke="#132e65" stroke-width="1.5"></path><path d="M-79.6 683.68L40.81 690.35" stroke="#132e65" stroke-width="1.5"></path><path d="M-40.33 859.98L-40.33 859.98" stroke="#132e65" stroke-width="1.5"></path><path d="M-40.33 859.98L74.91 805.25" stroke="#132e65" stroke-width="1.5"></path><path d="M-40.33 859.98L-79.6 683.68" stroke="#132e65" stroke-width="1.5"></path><path d="M-40.33 859.98L40.81 690.35" stroke="#132e65" stroke-width="1.5"></path><path d="M91.13 522.66L91.13 522.66" stroke="#132e65" stroke-width="1.5"></path><path d="M91.13 522.66L240.43 526.24" stroke="#132e65" stroke-width="1.5"></path><path d="M91.13 522.66L40.81 690.35" stroke="#132e65" stroke-width="1.5"></path><path d="M40.81 690.35L40.81 690.35" stroke="#132e65" stroke-width="1.5"></path><path d="M40.81 690.35L74.91 805.25" stroke="#132e65" stroke-width="1.5"></path><path d="M40.81 690.35L228.3 650.93" stroke="#132e65" stroke-width="1.5"></path><path d="M74.91 805.25L74.91 805.25" stroke="#132e65" stroke-width="1.5"></path><path d="M240.43 526.24L240.43 526.24" stroke="#132e65" stroke-width="1.5"></path><path d="M240.43 526.24L228.3 650.93" stroke="#132e65" stroke-width="1.5"></path><path d="M240.43 526.24L368.47 503.31" stroke="#132e65" stroke-width="1.5"></path><path d="M240.43 526.24L378.51 678.72" stroke="#132e65" stroke-width="1.5"></path><path d="M240.43 526.24L40.81 690.35" stroke="#132e65" stroke-width="1.5"></path><path d="M228.3 650.93L228.3 650.93" stroke="#132e65" stroke-width="1.5"></path><path d="M228.3 650.93L378.51 678.72" stroke="#132e65" stroke-width="1.5"></path><path d="M228.3 650.93L257.17 822.45" stroke="#132e65" stroke-width="1.5"></path><path d="M228.3 650.93L91.13 522.66" stroke="#132e65" stroke-width="1.5"></path><path d="M228.3 650.93L376.72 788.77" stroke="#132e65" stroke-width="1.5"></path><path d="M257.17 822.45L257.17 822.45" stroke="#132e65" stroke-width="1.5"></path><path d="M257.17 822.45L376.72 788.77" stroke="#132e65" stroke-width="1.5"></path><path d="M368.47 503.31L368.47 503.31" stroke="#132e65" stroke-width="1.5"></path><path d="M368.47 503.31L378.51 678.72" stroke="#132e65" stroke-width="1.5"></path><path d="M368.47 503.31L228.3 650.93" stroke="#132e65" stroke-width="1.5"></path><path d="M368.47 503.31L529.57 708.94" stroke="#132e65" stroke-width="1.5"></path><path d="M368.47 503.31L91.13 522.66" stroke="#132e65" stroke-width="1.5"></path><path d="M378.51 678.72L378.51 678.72" stroke="#132e65" stroke-width="1.5"></path><path d="M378.51 678.72L376.72 788.77" stroke="#132e65" stroke-width="1.5"></path><path d="M378.51 678.72L529.57 708.94" stroke="#132e65" stroke-width="1.5"></path><path d="M378.51 678.72L510.17 792.81" stroke="#132e65" stroke-width="1.5"></path><path d="M378.51 678.72L257.17 822.45" stroke="#132e65" stroke-width="1.5"></path><path d="M376.72 788.77L376.72 788.77" stroke="#132e65" stroke-width="1.5"></path><path d="M376.72 788.77L510.17 792.81" stroke="#132e65" stroke-width="1.5"></path><path d="M376.72 788.77L529.57 708.94" stroke="#132e65" stroke-width="1.5"></path><path d="M376.72 788.77L368.47 503.31" stroke="#132e65" stroke-width="1.5"></path><path d="M529.57 708.94L529.57 708.94" stroke="#132e65" stroke-width="1.5"></path><path d="M529.57 708.94L510.17 792.81" stroke="#132e65" stroke-width="1.5"></path><path d="M510.17 792.81L510.17 792.81" stroke="#132e65" stroke-width="1.5"></path><path d="M510.17 792.81L689.02 838.7" stroke="#132e65" stroke-width="1.5"></path><path d="M510.17 792.81L670.92 643.29" stroke="#132e65" stroke-width="1.5"></path><path d="M510.17 792.81L257.17 822.45" stroke="#132e65" stroke-width="1.5"></path><path d="M672.65 340.18L672.65 340.18" stroke="#132e65" stroke-width="1.5"></path><path d="M672.65 340.18L812.27 338.36" stroke="#132e65" stroke-width="1.5"></path><path d="M672.65 340.18L807.88 245.58" stroke="#132e65" stroke-width="1.5"></path><path d="M672.65 340.18L657.56 515.82" stroke="#132e65" stroke-width="1.5"></path><path d="M672.65 340.18L846.72 492.83" stroke="#132e65" stroke-width="1.5"></path><path d="M672.65 340.18L960.78 250.08" stroke="#132e65" stroke-width="1.5"></path><path d="M672.65 340.18L670.92 643.29" stroke="#132e65" stroke-width="1.5"></path><path d="M657.56 515.82L657.56 515.82" stroke="#132e65" stroke-width="1.5"></path><path d="M657.56 515.82L670.92 643.29" stroke="#132e65" stroke-width="1.5"></path><path d="M670.92 643.29L670.92 643.29" stroke="#132e65" stroke-width="1.5"></path><path d="M670.92 643.29L529.57 708.94" stroke="#132e65" stroke-width="1.5"></path><path d="M670.92 643.29L824.98 702.54" stroke="#132e65" stroke-width="1.5"></path><path d="M670.92 643.29L689.02 838.7" stroke="#132e65" stroke-width="1.5"></path><path d="M670.92 643.29L798.54 831.31" stroke="#132e65" stroke-width="1.5"></path><path d="M689.02 838.7L689.02 838.7" stroke="#132e65" stroke-width="1.5"></path><path d="M689.02 838.7L798.54 831.31" stroke="#132e65" stroke-width="1.5"></path><path d="M689.02 838.7L824.98 702.54" stroke="#132e65" stroke-width="1.5"></path><path d="M689.02 838.7L529.57 708.94" stroke="#132e65" stroke-width="1.5"></path><path d="M689.02 838.7L951.06 831.65" stroke="#132e65" stroke-width="1.5"></path><path d="M807.88 245.58L807.88 245.58" stroke="#132e65" stroke-width="1.5"></path><path d="M807.88 245.58L812.27 338.36" stroke="#132e65" stroke-width="1.5"></path><path d="M807.88 245.58L960.78 250.08" stroke="#132e65" stroke-width="1.5"></path><path d="M807.88 245.58L1008.03 371.4" stroke="#132e65" stroke-width="1.5"></path><path d="M812.27 338.36L812.27 338.36" stroke="#132e65" stroke-width="1.5"></path><path d="M812.27 338.36L846.72 492.83" stroke="#132e65" stroke-width="1.5"></path><path d="M812.27 338.36L960.78 250.08" stroke="#132e65" stroke-width="1.5"></path><path d="M812.27 338.36L1008.03 371.4" stroke="#132e65" stroke-width="1.5"></path><path d="M846.72 492.83L846.72 492.83" stroke="#132e65" stroke-width="1.5"></path><path d="M846.72 492.83L1012.31 533.45" stroke="#132e65" stroke-width="1.5"></path><path d="M846.72 492.83L657.56 515.82" stroke="#132e65" stroke-width="1.5"></path><path d="M846.72 492.83L1008.03 371.4" stroke="#132e65" stroke-width="1.5"></path><path d="M846.72 492.83L824.98 702.54" stroke="#132e65" stroke-width="1.5"></path><path d="M846.72 492.83L670.92 643.29" stroke="#132e65" stroke-width="1.5"></path><path d="M824.98 702.54L824.98 702.54" stroke="#132e65" stroke-width="1.5"></path><path d="M824.98 702.54L798.54 831.31" stroke="#132e65" stroke-width="1.5"></path><path d="M798.54 831.31L798.54 831.31" stroke="#132e65" stroke-width="1.5"></path><path d="M997.11 -93.52L997.11 -93.52" stroke="#132e65" stroke-width="1.5"></path><path d="M997.11 -93.52L1088.35 -75.14" stroke="#132e65" stroke-width="1.5"></path><path d="M997.11 -93.52L984.18 86.93" stroke="#132e65" stroke-width="1.5"></path><path d="M997.11 -93.52L1140.18 101.18" stroke="#132e65" stroke-width="1.5"></path><path d="M997.11 -93.52L1243.14 58.32" stroke="#132e65" stroke-width="1.5"></path><path d="M997.11 -93.52L1310.12 -94.09" stroke="#132e65" stroke-width="1.5"></path><path d="M984.18 86.93L984.18 86.93" stroke="#132e65" stroke-width="1.5"></path><path d="M984.18 86.93L1140.18 101.18" stroke="#132e65" stroke-width="1.5"></path><path d="M984.18 86.93L960.78 250.08" stroke="#132e65" stroke-width="1.5"></path><path d="M960.78 250.08L960.78 250.08" stroke="#132e65" stroke-width="1.5"></path><path d="M960.78 250.08L1008.03 371.4" stroke="#132e65" stroke-width="1.5"></path><path d="M1008.03 371.4L1008.03 371.4" stroke="#132e65" stroke-width="1.5"></path><path d="M1008.03 371.4L1091.81 349.92" stroke="#132e65" stroke-width="1.5"></path><path d="M1008.03 371.4L1012.31 533.45" stroke="#132e65" stroke-width="1.5"></path><path d="M1008.03 371.4L1096.35 531.82" stroke="#132e65" stroke-width="1.5"></path><path d="M1008.03 371.4L1157.21 246.22" stroke="#132e65" stroke-width="1.5"></path><path d="M1012.31 533.45L1012.31 533.45" stroke="#132e65" stroke-width="1.5"></path><path d="M1012.31 533.45L1096.35 531.82" stroke="#132e65" stroke-width="1.5"></path><path d="M1012.31 533.45L1004.91 669.89" stroke="#132e65" stroke-width="1.5"></path><path d="M1012.31 533.45L1113.38 647.25" stroke="#132e65" stroke-width="1.5"></path><path d="M1012.31 533.45L1091.81 349.92" stroke="#132e65" stroke-width="1.5"></path><path d="M1004.91 669.89L1004.91 669.89" stroke="#132e65" stroke-width="1.5"></path><path d="M1004.91 669.89L1113.38 647.25" stroke="#132e65" stroke-width="1.5"></path><path d="M1004.91 669.89L1096.35 531.82" stroke="#132e65" stroke-width="1.5"></path><path d="M1004.91 669.89L951.06 831.65" stroke="#132e65" stroke-width="1.5"></path><path d="M1004.91 669.89L824.98 702.54" stroke="#132e65" stroke-width="1.5"></path><path d="M1004.91 669.89L1129.2 832.99" stroke="#132e65" stroke-width="1.5"></path><path d="M951.06 831.65L951.06 831.65" stroke="#132e65" stroke-width="1.5"></path><path d="M951.06 831.65L798.54 831.31" stroke="#132e65" stroke-width="1.5"></path><path d="M951.06 831.65L1129.2 832.99" stroke="#132e65" stroke-width="1.5"></path><path d="M1088.35 -75.14L1088.35 -75.14" stroke="#132e65" stroke-width="1.5"></path><path d="M1088.35 -75.14L1140.18 101.18" stroke="#132e65" stroke-width="1.5"></path><path d="M1088.35 -75.14L984.18 86.93" stroke="#132e65" stroke-width="1.5"></path><path d="M1088.35 -75.14L1243.14 58.32" stroke="#132e65" stroke-width="1.5"></path><path d="M1088.35 -75.14L1310.12 -94.09" stroke="#132e65" stroke-width="1.5"></path><path d="M1088.35 -75.14L1409.49 -94.94" stroke="#132e65" stroke-width="1.5"></path><path d="M1140.18 101.18L1140.18 101.18" stroke="#132e65" stroke-width="1.5"></path><path d="M1140.18 101.18L1243.14 58.32" stroke="#132e65" stroke-width="1.5"></path><path d="M1140.18 101.18L1157.21 246.22" stroke="#132e65" stroke-width="1.5"></path><path d="M1140.18 101.18L1241.22 218.84" stroke="#132e65" stroke-width="1.5"></path><path d="M1157.21 246.22L1157.21 246.22" stroke="#132e65" stroke-width="1.5"></path><path d="M1157.21 246.22L1241.22 218.84" stroke="#132e65" stroke-width="1.5"></path><path d="M1157.21 246.22L1091.81 349.92" stroke="#132e65" stroke-width="1.5"></path><path d="M1157.21 246.22L1255.97 409.53" stroke="#132e65" stroke-width="1.5"></path><path d="M1091.81 349.92L1091.81 349.92" stroke="#132e65" stroke-width="1.5"></path><path d="M1091.81 349.92L960.78 250.08" stroke="#132e65" stroke-width="1.5"></path><path d="M1091.81 349.92L1255.97 409.53" stroke="#132e65" stroke-width="1.5"></path><path d="M1096.35 531.82L1096.35 531.82" stroke="#132e65" stroke-width="1.5"></path><path d="M1113.38 647.25L1113.38 647.25" stroke="#132e65" stroke-width="1.5"></path><path d="M1113.38 647.25L1096.35 531.82" stroke="#132e65" stroke-width="1.5"></path><path d="M1113.38 647.25L1129.2 832.99" stroke="#132e65" stroke-width="1.5"></path><path d="M1113.38 647.25L1305.34 669.95" stroke="#132e65" stroke-width="1.5"></path><path d="M1129.2 832.99L1129.2 832.99" stroke="#132e65" stroke-width="1.5"></path><path d="M1129.2 832.99L1250.3 808.4" stroke="#132e65" stroke-width="1.5"></path><path d="M1310.12 -94.09L1310.12 -94.09" stroke="#132e65" stroke-width="1.5"></path><path d="M1310.12 -94.09L1409.49 -94.94" stroke="#132e65" stroke-width="1.5"></path><path d="M1310.12 -94.09L1243.14 58.32" stroke="#132e65" stroke-width="1.5"></path><path d="M1310.12 -94.09L1442.16 94.48" stroke="#132e65" stroke-width="1.5"></path><path d="M1243.14 58.32L1243.14 58.32" stroke="#132e65" stroke-width="1.5"></path><path d="M1243.14 58.32L1241.22 218.84" stroke="#132e65" stroke-width="1.5"></path><path d="M1241.22 218.84L1241.22 218.84" stroke="#132e65" stroke-width="1.5"></path><path d="M1255.97 409.53L1255.97 409.53" stroke="#132e65" stroke-width="1.5"></path><path d="M1255.97 409.53L1273.3 505.31" stroke="#132e65" stroke-width="1.5"></path><path d="M1255.97 409.53L1399.99 521.96" stroke="#132e65" stroke-width="1.5"></path><path d="M1273.3 505.31L1273.3 505.31" stroke="#132e65" stroke-width="1.5"></path><path d="M1273.3 505.31L1399.99 521.96" stroke="#132e65" stroke-width="1.5"></path><path d="M1273.3 505.31L1305.34 669.95" stroke="#132e65" stroke-width="1.5"></path><path d="M1273.3 505.31L1096.35 531.82" stroke="#132e65" stroke-width="1.5"></path><path d="M1305.34 669.95L1305.34 669.95" stroke="#132e65" stroke-width="1.5"></path><path d="M1305.34 669.95L1407.86 637.97" stroke="#132e65" stroke-width="1.5"></path><path d="M1305.34 669.95L1250.3 808.4" stroke="#132e65" stroke-width="1.5"></path><path d="M1250.3 808.4L1250.3 808.4" stroke="#132e65" stroke-width="1.5"></path><path d="M1250.3 808.4L1427.29 816.62" stroke="#132e65" stroke-width="1.5"></path><path d="M1250.3 808.4L1113.38 647.25" stroke="#132e65" stroke-width="1.5"></path><path d="M1250.3 808.4L1407.86 637.97" stroke="#132e65" stroke-width="1.5"></path><path d="M1250.3 808.4L1004.91 669.89" stroke="#132e65" stroke-width="1.5"></path><path d="M1409.49 -94.94L1409.49 -94.94" stroke="#132e65" stroke-width="1.5"></path><path d="M1409.49 -94.94L1575.91 -83.16" stroke="#132e65" stroke-width="1.5"></path><path d="M1409.49 -94.94L1442.16 94.48" stroke="#132e65" stroke-width="1.5"></path><path d="M1442.16 94.48L1442.16 94.48" stroke="#132e65" stroke-width="1.5"></path><path d="M1442.16 94.48L1554.13 88.31" stroke="#132e65" stroke-width="1.5"></path><path d="M1442.16 94.48L1438.06 219.43" stroke="#132e65" stroke-width="1.5"></path><path d="M1438.06 219.43L1438.06 219.43" stroke="#132e65" stroke-width="1.5"></path><path d="M1438.06 219.43L1552.54 227.03" stroke="#132e65" stroke-width="1.5"></path><path d="M1438.06 219.43L1452.2 381.51" stroke="#132e65" stroke-width="1.5"></path><path d="M1438.06 219.43L1554.13 88.31" stroke="#132e65" stroke-width="1.5"></path><path d="M1452.2 381.51L1452.2 381.51" stroke="#132e65" stroke-width="1.5"></path><path d="M1452.2 381.51L1547.91 394.41" stroke="#132e65" stroke-width="1.5"></path><path d="M1399.99 521.96L1399.99 521.96" stroke="#132e65" stroke-width="1.5"></path><path d="M1399.99 521.96L1407.86 637.97" stroke="#132e65" stroke-width="1.5"></path><path d="M1407.86 637.97L1407.86 637.97" stroke="#132e65" stroke-width="1.5"></path><path d="M1407.86 637.97L1427.29 816.62" stroke="#132e65" stroke-width="1.5"></path><path d="M1407.86 637.97L1273.3 505.31" stroke="#132e65" stroke-width="1.5"></path><path d="M1407.86 637.97L1591.54 685.27" stroke="#132e65" stroke-width="1.5"></path><path d="M1427.29 816.62L1427.29 816.62" stroke="#132e65" stroke-width="1.5"></path><path d="M1427.29 816.62L1540.74 844.56" stroke="#132e65" stroke-width="1.5"></path><path d="M1575.91 -83.16L1575.91 -83.16" stroke="#132e65" stroke-width="1.5"></path><path d="M1575.91 -83.16L1554.13 88.31" stroke="#132e65" stroke-width="1.5"></path><path d="M1575.91 -83.16L1442.16 94.48" stroke="#132e65" stroke-width="1.5"></path><path d="M1575.91 -83.16L1310.12 -94.09" stroke="#132e65" stroke-width="1.5"></path><path d="M1575.91 -83.16L1552.54 227.03" stroke="#132e65" stroke-width="1.5"></path><path d="M1575.91 -83.16L1438.06 219.43" stroke="#132e65" stroke-width="1.5"></path><path d="M1554.13 88.31L1554.13 88.31" stroke="#132e65" stroke-width="1.5"></path><path d="M1554.13 88.31L1552.54 227.03" stroke="#132e65" stroke-width="1.5"></path><path d="M1554.13 88.31L1409.49 -94.94" stroke="#132e65" stroke-width="1.5"></path><path d="M1554.13 88.31L1310.12 -94.09" stroke="#132e65" stroke-width="1.5"></path><path d="M1552.54 227.03L1552.54 227.03" stroke="#132e65" stroke-width="1.5"></path><path d="M1552.54 227.03L1547.91 394.41" stroke="#132e65" stroke-width="1.5"></path><path d="M1552.54 227.03L1442.16 94.48" stroke="#132e65" stroke-width="1.5"></path><path d="M1547.91 394.41L1547.91 394.41" stroke="#132e65" stroke-width="1.5"></path><path d="M1547.91 394.41L1559.19 500.83" stroke="#132e65" stroke-width="1.5"></path><path d="M1547.91 394.41L1399.99 521.96" stroke="#132e65" stroke-width="1.5"></path><path d="M1547.91 394.41L1438.06 219.43" stroke="#132e65" stroke-width="1.5"></path><path d="M1547.91 394.41L1407.86 637.97" stroke="#132e65" stroke-width="1.5"></path><path d="M1559.19 500.83L1559.19 500.83" stroke="#132e65" stroke-width="1.5"></path><path d="M1559.19 500.83L1452.2 381.51" stroke="#132e65" stroke-width="1.5"></path><path d="M1559.19 500.83L1399.99 521.96" stroke="#132e65" stroke-width="1.5"></path><path d="M1559.19 500.83L1591.54 685.27" stroke="#132e65" stroke-width="1.5"></path><path d="M1559.19 500.83L1407.86 637.97" stroke="#132e65" stroke-width="1.5"></path><path d="M1559.19 500.83L1552.54 227.03" stroke="#132e65" stroke-width="1.5"></path><path d="M1591.54 685.27L1591.54 685.27" stroke="#132e65" stroke-width="1.5"></path><path d="M1591.54 685.27L1540.74 844.56" stroke="#132e65" stroke-width="1.5"></path><path d="M1540.74 844.56L1540.74 844.56" stroke="#132e65" stroke-width="1.5"></path><circle r="5" cx="-92.39" cy="511.71" fill="#132e65"></circle><circle r="5" cx="-79.6" cy="683.68" fill="#132e65"></circle><circle r="5" cx="-40.33" cy="859.98" fill="#132e65"></circle><circle r="5" cx="91.13" cy="522.66" fill="#132e65"></circle><circle r="5" cx="40.81" cy="690.35" fill="#132e65"></circle><circle r="5" cx="74.91" cy="805.25" fill="#132e65"></circle><circle r="5" cx="240.43" cy="526.24" fill="#132e65"></circle><circle r="5" cx="228.3" cy="650.93" fill="#132e65"></circle><circle r="5" cx="257.17" cy="822.45" fill="#132e65"></circle><circle r="5" cx="368.47" cy="503.31" fill="#132e65"></circle><circle r="5" cx="378.51" cy="678.72" fill="#132e65"></circle><circle r="5" cx="376.72" cy="788.77" fill="#132e65"></circle><circle r="5" cx="529.57" cy="708.94" fill="#132e65"></circle><circle r="5" cx="510.17" cy="792.81" fill="#132e65"></circle><circle r="5" cx="672.65" cy="340.18" fill="#132e65"></circle><circle r="5" cx="657.56" cy="515.82" fill="#132e65"></circle><circle r="5" cx="670.92" cy="643.29" fill="#132e65"></circle><circle r="5" cx="689.02" cy="838.7" fill="#132e65"></circle><circle r="5" cx="807.88" cy="245.58" fill="#132e65"></circle><circle r="5" cx="812.27" cy="338.36" fill="#132e65"></circle><circle r="5" cx="846.72" cy="492.83" fill="#132e65"></circle><circle r="5" cx="824.98" cy="702.54" fill="#132e65"></circle><circle r="5" cx="798.54" cy="831.31" fill="#132e65"></circle><circle r="5" cx="997.11" cy="-93.52" fill="#132e65"></circle><circle r="5" cx="984.18" cy="86.93" fill="#132e65"></circle><circle r="5" cx="960.78" cy="250.08" fill="#132e65"></circle><circle r="5" cx="1008.03" cy="371.4" fill="#132e65"></circle><circle r="5" cx="1012.31" cy="533.45" fill="#132e65"></circle><circle r="5" cx="1004.91" cy="669.89" fill="#132e65"></circle><circle r="5" cx="951.06" cy="831.65" fill="#132e65"></circle><circle r="5" cx="1088.35" cy="-75.14" fill="#132e65"></circle><circle r="5" cx="1140.18" cy="101.18" fill="#132e65"></circle><circle r="5" cx="1157.21" cy="246.22" fill="#132e65"></circle><circle r="5" cx="1091.81" cy="349.92" fill="#132e65"></circle><circle r="5" cx="1096.35" cy="531.82" fill="#132e65"></circle><circle r="5" cx="1113.38" cy="647.25" fill="#132e65"></circle><circle r="5" cx="1129.2" cy="832.99" fill="#132e65"></circle><circle r="5" cx="1310.12" cy="-94.09" fill="#132e65"></circle><circle r="5" cx="1243.14" cy="58.32" fill="#132e65"></circle><circle r="5" cx="1241.22" cy="218.84" fill="#132e65"></circle><circle r="5" cx="1255.97" cy="409.53" fill="#132e65"></circle><circle r="5" cx="1273.3" cy="505.31" fill="#132e65"></circle><circle r="5" cx="1305.34" cy="669.95" fill="#132e65"></circle><circle r="5" cx="1250.3" cy="808.4" fill="#132e65"></circle><circle r="5" cx="1409.49" cy="-94.94" fill="#132e65"></circle><circle r="5" cx="1442.16" cy="94.48" fill="#132e65"></circle><circle r="5" cx="1438.06" cy="219.43" fill="#132e65"></circle><circle r="5" cx="1452.2" cy="381.51" fill="#132e65"></circle><circle r="5" cx="1399.99" cy="521.96" fill="#132e65"></circle><circle r="5" cx="1407.86" cy="637.97" fill="#132e65"></circle><circle r="5" cx="1427.29" cy="816.62" fill="#132e65"></circle><circle r="5" cx="1575.91" cy="-83.16" fill="#132e65"></circle><circle r="5" cx="1554.13" cy="88.31" fill="#132e65"></circle><circle r="5" cx="1552.54" cy="227.03" fill="#132e65"></circle><circle r="5" cx="1547.91" cy="394.41" fill="#132e65"></circle><circle r="5" cx="1559.19" cy="500.83" fill="#132e65"></circle><circle r="5" cx="1591.54" cy="685.27" fill="#132e65"></circle><circle r="5" cx="1540.74" cy="844.56" fill="#132e65"></circle><path d="M698.43 789.56L698.43 789.56" stroke="hsl(228.5, 77.2%, 51.5%)" stroke-width="1.5"></path><path d="M698.43 789.56L796.13 835.1" stroke="hsl(228.5, 77.2%, 51.5%)" stroke-width="1.5"></path><path d="M698.43 789.56L690.08 676.04" stroke="hsl(228.5, 77.2%, 51.5%)" stroke-width="1.5"></path><path d="M968.05 539.65L968.05 539.65" stroke="hsl(228.5, 77.2%, 51.5%)" stroke-width="1.5"></path><path d="M968.05 539.65L855.4 549.78" stroke="hsl(228.5, 77.2%, 51.5%)" stroke-width="1.5"></path><path d="M968.05 539.65L956.68 654.29" stroke="hsl(228.5, 77.2%, 51.5%)" stroke-width="1.5"></path><path d="M968.05 539.65L952.1 395.85" stroke="hsl(228.5, 77.2%, 51.5%)" stroke-width="1.5"></path><path d="M968.05 539.65L1141.09 532.79" stroke="hsl(228.5, 77.2%, 51.5%)" stroke-width="1.5"></path><path d="M968.05 539.65L844.07 705.39" stroke="hsl(228.5, 77.2%, 51.5%)" stroke-width="1.5"></path><path d="M968.05 539.65L1142.76 398.62" stroke="hsl(228.5, 77.2%, 51.5%)" stroke-width="1.5"></path><path d="M1141.09 532.79L1141.09 532.79" stroke="hsl(228.5, 77.2%, 51.5%)" stroke-width="1.5"></path><path d="M1141.09 532.79L1268.75 526.85" stroke="hsl(228.5, 77.2%, 51.5%)" stroke-width="1.5"></path><path d="M1141.09 532.79L1142.76 398.62" stroke="hsl(228.5, 77.2%, 51.5%)" stroke-width="1.5"></path><path d="M1254.25 -54.63L1254.25 -54.63" stroke="hsl(228.5, 77.2%, 51.5%)" stroke-width="1.5"></path><path d="M1254.25 -54.63L1274.24 62.3" stroke="hsl(228.5, 77.2%, 51.5%)" stroke-width="1.5"></path><path d="M1254.25 -54.63L1423.76 -62.63" stroke="hsl(228.5, 77.2%, 51.5%)" stroke-width="1.5"></path><path d="M1254.25 -54.63L1450.97 91.01" stroke="hsl(228.5, 77.2%, 51.5%)" stroke-width="1.5"></path><path d="M1254.25 -54.63L1560.51 -81.83" stroke="hsl(228.5, 77.2%, 51.5%)" stroke-width="1.5"></path><path d="M1263.42 820.48L1263.42 820.48" stroke="hsl(228.5, 77.2%, 51.5%)" stroke-width="1.5"></path><path d="M1263.42 820.48L1391.88 809.43" stroke="hsl(228.5, 77.2%, 51.5%)" stroke-width="1.5"></path><path d="M1263.42 820.48L1287.53 689.17" stroke="hsl(228.5, 77.2%, 51.5%)" stroke-width="1.5"></path><path d="M1263.42 820.48L1110.81 836.7" stroke="hsl(228.5, 77.2%, 51.5%)" stroke-width="1.5"></path><path d="M1263.42 820.48L1155.05 671.14" stroke="hsl(228.5, 77.2%, 51.5%)" stroke-width="1.5"></path><path d="M1263.42 820.48L1460.25 704.56" stroke="hsl(228.5, 77.2%, 51.5%)" stroke-width="1.5"></path><path d="M1263.42 820.48L982.31 861.09" stroke="hsl(228.5, 77.2%, 51.5%)" stroke-width="1.5"></path><path d="M1460.25 704.56L1460.25 704.56" stroke="hsl(228.5, 77.2%, 51.5%)" stroke-width="1.5"></path><path d="M1460.25 704.56L1560.08 671.38" stroke="hsl(228.5, 77.2%, 51.5%)" stroke-width="1.5"></path><path d="M1460.25 704.56L1391.88 809.43" stroke="hsl(228.5, 77.2%, 51.5%)" stroke-width="1.5"></path><path d="M1560.67 257.24L1560.67 257.24" stroke="hsl(228.5, 77.2%, 51.5%)" stroke-width="1.5"></path><path d="M1560.67 257.24L1575.17 339.11" stroke="hsl(228.5, 77.2%, 51.5%)" stroke-width="1.5"></path><path d="M1560.67 257.24L1389 233.06" stroke="hsl(228.5, 77.2%, 51.5%)" stroke-width="1.5"></path><path d="M1560.67 257.24L1444.83 395.09" stroke="hsl(228.5, 77.2%, 51.5%)" stroke-width="1.5"></path><path d="M1560.67 257.24L1450.97 91.01" stroke="hsl(228.5, 77.2%, 51.5%)" stroke-width="1.5"></path><path d="M1564.79 497.03L1564.79 497.03" stroke="hsl(228.5, 77.2%, 51.5%)" stroke-width="1.5"></path><path d="M1564.79 497.03L1444.83 395.09" stroke="hsl(228.5, 77.2%, 51.5%)" stroke-width="1.5"></path><path d="M1564.79 497.03L1575.17 339.11" stroke="hsl(228.5, 77.2%, 51.5%)" stroke-width="1.5"></path><path d="M1564.79 497.03L1560.08 671.38" stroke="hsl(228.5, 77.2%, 51.5%)" stroke-width="1.5"></path><path d="M1564.79 497.03L1394.47 557.25" stroke="hsl(228.5, 77.2%, 51.5%)" stroke-width="1.5"></path><path d="M-47.25 706.48L-47.25 706.48" stroke="hsl(228.5, 77.2%, 51.5%)" stroke-width="1.5"></path><path d="M-47.25 706.48L-53.34 840.79" stroke="hsl(228.5, 77.2%, 51.5%)" stroke-width="1.5"></path><path d="M-47.25 706.48L90.31 710.97" stroke="hsl(228.5, 77.2%, 51.5%)" stroke-width="1.5"></path><path d="M-47.25 706.48L79.79 819.79" stroke="hsl(228.5, 77.2%, 51.5%)" stroke-width="1.5"></path><path d="M-47.25 706.48L205.6 697.3" stroke="hsl(228.5, 77.2%, 51.5%)" stroke-width="1.5"></path><path d="M-47.25 706.48L210 836.51" stroke="hsl(228.5, 77.2%, 51.5%)" stroke-width="1.5"></path><path d="M-53.34 840.79L-53.34 840.79" stroke="hsl(228.5, 77.2%, 51.5%)" stroke-width="1.5"></path><path d="M-53.34 840.79L79.79 819.79" stroke="hsl(228.5, 77.2%, 51.5%)" stroke-width="1.5"></path><path d="M-53.34 840.79L90.31 710.97" stroke="hsl(228.5, 77.2%, 51.5%)" stroke-width="1.5"></path><path d="M-53.34 840.79L210 836.51" stroke="hsl(228.5, 77.2%, 51.5%)" stroke-width="1.5"></path><path d="M90.31 710.97L90.31 710.97" stroke="hsl(228.5, 77.2%, 51.5%)" stroke-width="1.5"></path><path d="M90.31 710.97L79.79 819.79" stroke="hsl(228.5, 77.2%, 51.5%)" stroke-width="1.5"></path><path d="M90.31 710.97L205.6 697.3" stroke="hsl(228.5, 77.2%, 51.5%)" stroke-width="1.5"></path><path d="M90.31 710.97L210 836.51" stroke="hsl(228.5, 77.2%, 51.5%)" stroke-width="1.5"></path><path d="M90.31 710.97L359.43 677.36" stroke="hsl(228.5, 77.2%, 51.5%)" stroke-width="1.5"></path><path d="M79.79 819.79L79.79 819.79" stroke="hsl(228.5, 77.2%, 51.5%)" stroke-width="1.5"></path><path d="M79.79 819.79L210 836.51" stroke="hsl(228.5, 77.2%, 51.5%)" stroke-width="1.5"></path><path d="M205.6 697.3L205.6 697.3" stroke="hsl(228.5, 77.2%, 51.5%)" stroke-width="1.5"></path><path d="M205.6 697.3L210 836.51" stroke="hsl(228.5, 77.2%, 51.5%)" stroke-width="1.5"></path><path d="M205.6 697.3L359.43 677.36" stroke="hsl(228.5, 77.2%, 51.5%)" stroke-width="1.5"></path><path d="M210 836.51L210 836.51" stroke="hsl(228.5, 77.2%, 51.5%)" stroke-width="1.5"></path><path d="M210 836.51L359.43 677.36" stroke="hsl(228.5, 77.2%, 51.5%)" stroke-width="1.5"></path><path d="M359.43 677.36L359.43 677.36" stroke="hsl(228.5, 77.2%, 51.5%)" stroke-width="1.5"></path><path d="M359.43 677.36L504.32 688.81" stroke="hsl(228.5, 77.2%, 51.5%)" stroke-width="1.5"></path><path d="M504.32 688.81L504.32 688.81" stroke="hsl(228.5, 77.2%, 51.5%)" stroke-width="1.5"></path><path d="M504.32 688.81L517.47 844.19" stroke="hsl(228.5, 77.2%, 51.5%)" stroke-width="1.5"></path><path d="M517.47 844.19L517.47 844.19" stroke="hsl(228.5, 77.2%, 51.5%)" stroke-width="1.5"></path><path d="M517.47 844.19L698.43 789.56" stroke="hsl(228.5, 77.2%, 51.5%)" stroke-width="1.5"></path><path d="M517.47 844.19L359.43 677.36" stroke="hsl(228.5, 77.2%, 51.5%)" stroke-width="1.5"></path><path d="M517.47 844.19L690.08 676.04" stroke="hsl(228.5, 77.2%, 51.5%)" stroke-width="1.5"></path><path d="M517.47 844.19L796.13 835.1" stroke="hsl(228.5, 77.2%, 51.5%)" stroke-width="1.5"></path><path d="M663.27 503.13L663.27 503.13" stroke="hsl(228.5, 77.2%, 51.5%)" stroke-width="1.5"></path><path d="M663.27 503.13L690.08 676.04" stroke="hsl(228.5, 77.2%, 51.5%)" stroke-width="1.5"></path><path d="M663.27 503.13L855.4 549.78" stroke="hsl(228.5, 77.2%, 51.5%)" stroke-width="1.5"></path><path d="M663.27 503.13L504.32 688.81" stroke="hsl(228.5, 77.2%, 51.5%)" stroke-width="1.5"></path><path d="M663.27 503.13L844.07 705.39" stroke="hsl(228.5, 77.2%, 51.5%)" stroke-width="1.5"></path><path d="M690.08 676.04L690.08 676.04" stroke="hsl(228.5, 77.2%, 51.5%)" stroke-width="1.5"></path><path d="M690.08 676.04L844.07 705.39" stroke="hsl(228.5, 77.2%, 51.5%)" stroke-width="1.5"></path><path d="M690.08 676.04L504.32 688.81" stroke="hsl(228.5, 77.2%, 51.5%)" stroke-width="1.5"></path><path d="M690.08 676.04L796.13 835.1" stroke="hsl(228.5, 77.2%, 51.5%)" stroke-width="1.5"></path><path d="M855.4 549.78L855.4 549.78" stroke="hsl(228.5, 77.2%, 51.5%)" stroke-width="1.5"></path><path d="M855.4 549.78L956.68 654.29" stroke="hsl(228.5, 77.2%, 51.5%)" stroke-width="1.5"></path><path d="M855.4 549.78L844.07 705.39" stroke="hsl(228.5, 77.2%, 51.5%)" stroke-width="1.5"></path><path d="M855.4 549.78L952.1 395.85" stroke="hsl(228.5, 77.2%, 51.5%)" stroke-width="1.5"></path><path d="M844.07 705.39L844.07 705.39" stroke="hsl(228.5, 77.2%, 51.5%)" stroke-width="1.5"></path><path d="M844.07 705.39L956.68 654.29" stroke="hsl(228.5, 77.2%, 51.5%)" stroke-width="1.5"></path><path d="M844.07 705.39L796.13 835.1" stroke="hsl(228.5, 77.2%, 51.5%)" stroke-width="1.5"></path><path d="M796.13 835.1L796.13 835.1" stroke="hsl(228.5, 77.2%, 51.5%)" stroke-width="1.5"></path><path d="M796.13 835.1L982.31 861.09" stroke="hsl(228.5, 77.2%, 51.5%)" stroke-width="1.5"></path><path d="M796.13 835.1L956.68 654.29" stroke="hsl(228.5, 77.2%, 51.5%)" stroke-width="1.5"></path><path d="M952.1 395.85L952.1 395.85" stroke="hsl(228.5, 77.2%, 51.5%)" stroke-width="1.5"></path><path d="M956.68 654.29L956.68 654.29" stroke="hsl(228.5, 77.2%, 51.5%)" stroke-width="1.5"></path><path d="M956.68 654.29L1155.05 671.14" stroke="hsl(228.5, 77.2%, 51.5%)" stroke-width="1.5"></path><path d="M982.31 861.09L982.31 861.09" stroke="hsl(228.5, 77.2%, 51.5%)" stroke-width="1.5"></path><path d="M982.31 861.09L1110.81 836.7" stroke="hsl(228.5, 77.2%, 51.5%)" stroke-width="1.5"></path><path d="M1142.76 398.62L1142.76 398.62" stroke="hsl(228.5, 77.2%, 51.5%)" stroke-width="1.5"></path><path d="M1142.76 398.62L1307.65 363.24" stroke="hsl(228.5, 77.2%, 51.5%)" stroke-width="1.5"></path><path d="M1142.76 398.62L1268.75 526.85" stroke="hsl(228.5, 77.2%, 51.5%)" stroke-width="1.5"></path><path d="M1155.05 671.14L1155.05 671.14" stroke="hsl(228.5, 77.2%, 51.5%)" stroke-width="1.5"></path><path d="M1155.05 671.14L1287.53 689.17" stroke="hsl(228.5, 77.2%, 51.5%)" stroke-width="1.5"></path><path d="M1155.05 671.14L1141.09 532.79" stroke="hsl(228.5, 77.2%, 51.5%)" stroke-width="1.5"></path><path d="M1155.05 671.14L1110.81 836.7" stroke="hsl(228.5, 77.2%, 51.5%)" stroke-width="1.5"></path><path d="M1155.05 671.14L1268.75 526.85" stroke="hsl(228.5, 77.2%, 51.5%)" stroke-width="1.5"></path><path d="M1110.81 836.7L1110.81 836.7" stroke="hsl(228.5, 77.2%, 51.5%)" stroke-width="1.5"></path><path d="M1274.24 62.3L1274.24 62.3" stroke="hsl(228.5, 77.2%, 51.5%)" stroke-width="1.5"></path><path d="M1274.24 62.3L1450.97 91.01" stroke="hsl(228.5, 77.2%, 51.5%)" stroke-width="1.5"></path><path d="M1307.65 363.24L1307.65 363.24" stroke="hsl(228.5, 77.2%, 51.5%)" stroke-width="1.5"></path><path d="M1307.65 363.24L1444.83 395.09" stroke="hsl(228.5, 77.2%, 51.5%)" stroke-width="1.5"></path><path d="M1307.65 363.24L1389 233.06" stroke="hsl(228.5, 77.2%, 51.5%)" stroke-width="1.5"></path><path d="M1307.65 363.24L1268.75 526.85" stroke="hsl(228.5, 77.2%, 51.5%)" stroke-width="1.5"></path><path d="M1268.75 526.85L1268.75 526.85" stroke="hsl(228.5, 77.2%, 51.5%)" stroke-width="1.5"></path><path d="M1268.75 526.85L1394.47 557.25" stroke="hsl(228.5, 77.2%, 51.5%)" stroke-width="1.5"></path><path d="M1268.75 526.85L1287.53 689.17" stroke="hsl(228.5, 77.2%, 51.5%)" stroke-width="1.5"></path><path d="M1287.53 689.17L1287.53 689.17" stroke="hsl(228.5, 77.2%, 51.5%)" stroke-width="1.5"></path><path d="M1423.76 -62.63L1423.76 -62.63" stroke="hsl(228.5, 77.2%, 51.5%)" stroke-width="1.5"></path><path d="M1423.76 -62.63L1560.51 -81.83" stroke="hsl(228.5, 77.2%, 51.5%)" stroke-width="1.5"></path><path d="M1423.76 -62.63L1450.97 91.01" stroke="hsl(228.5, 77.2%, 51.5%)" stroke-width="1.5"></path><path d="M1450.97 91.01L1450.97 91.01" stroke="hsl(228.5, 77.2%, 51.5%)" stroke-width="1.5"></path><path d="M1450.97 91.01L1587.05 54.17" stroke="hsl(228.5, 77.2%, 51.5%)" stroke-width="1.5"></path><path d="M1450.97 91.01L1389 233.06" stroke="hsl(228.5, 77.2%, 51.5%)" stroke-width="1.5"></path><path d="M1389 233.06L1389 233.06" stroke="hsl(228.5, 77.2%, 51.5%)" stroke-width="1.5"></path><path d="M1389 233.06L1444.83 395.09" stroke="hsl(228.5, 77.2%, 51.5%)" stroke-width="1.5"></path><path d="M1444.83 395.09L1444.83 395.09" stroke="hsl(228.5, 77.2%, 51.5%)" stroke-width="1.5"></path><path d="M1444.83 395.09L1575.17 339.11" stroke="hsl(228.5, 77.2%, 51.5%)" stroke-width="1.5"></path><path d="M1394.47 557.25L1394.47 557.25" stroke="hsl(228.5, 77.2%, 51.5%)" stroke-width="1.5"></path><path d="M1394.47 557.25L1460.25 704.56" stroke="hsl(228.5, 77.2%, 51.5%)" stroke-width="1.5"></path><path d="M1394.47 557.25L1444.83 395.09" stroke="hsl(228.5, 77.2%, 51.5%)" stroke-width="1.5"></path><path d="M1391.88 809.43L1391.88 809.43" stroke="hsl(228.5, 77.2%, 51.5%)" stroke-width="1.5"></path><path d="M1560.51 -81.83L1560.51 -81.83" stroke="hsl(228.5, 77.2%, 51.5%)" stroke-width="1.5"></path><path d="M1560.51 -81.83L1587.05 54.17" stroke="hsl(228.5, 77.2%, 51.5%)" stroke-width="1.5"></path><path d="M1560.51 -81.83L1450.97 91.01" stroke="hsl(228.5, 77.2%, 51.5%)" stroke-width="1.5"></path><path d="M1587.05 54.17L1587.05 54.17" stroke="hsl(228.5, 77.2%, 51.5%)" stroke-width="1.5"></path><path d="M1587.05 54.17L1423.76 -62.63" stroke="hsl(228.5, 77.2%, 51.5%)" stroke-width="1.5"></path><path d="M1587.05 54.17L1560.67 257.24" stroke="hsl(228.5, 77.2%, 51.5%)" stroke-width="1.5"></path><path d="M1587.05 54.17L1389 233.06" stroke="hsl(228.5, 77.2%, 51.5%)" stroke-width="1.5"></path><path d="M1575.17 339.11L1575.17 339.11" stroke="hsl(228.5, 77.2%, 51.5%)" stroke-width="1.5"></path><path d="M1575.17 339.11L1389 233.06" stroke="hsl(228.5, 77.2%, 51.5%)" stroke-width="1.5"></path><path d="M1575.17 339.11L1307.65 363.24" stroke="hsl(228.5, 77.2%, 51.5%)" stroke-width="1.5"></path><path d="M1560.08 671.38L1560.08 671.38" stroke="hsl(228.5, 77.2%, 51.5%)" stroke-width="1.5"></path><path d="M1560.08 671.38L1560.68 790.98" stroke="hsl(228.5, 77.2%, 51.5%)" stroke-width="1.5"></path><path d="M1560.68 790.98L1560.68 790.98" stroke="hsl(228.5, 77.2%, 51.5%)" stroke-width="1.5"></path><circle r="25" cx="698.43" cy="789.56" fill="url(#SvgjsRadialGradient1120)"></circle><circle r="25" cx="968.05" cy="539.65" fill="url(#SvgjsRadialGradient1120)"></circle><circle r="25" cx="1141.09" cy="532.79" fill="url(#SvgjsRadialGradient1120)"></circle><circle r="25" cx="1254.25" cy="-54.63" fill="url(#SvgjsRadialGradient1120)"></circle><circle r="25" cx="1263.42" cy="820.48" fill="url(#SvgjsRadialGradient1120)"></circle><circle r="25" cx="1460.25" cy="704.56" fill="url(#SvgjsRadialGradient1120)"></circle><circle r="25" cx="1560.67" cy="257.24" fill="url(#SvgjsRadialGradient1120)"></circle><circle r="25" cx="1564.79" cy="497.03" fill="url(#SvgjsRadialGradient1120)"></circle><circle r="5" cx="-47.25" cy="706.48" fill="#8b9ad9"></circle><circle r="5" cx="-53.34" cy="840.79" fill="#8b9ad9"></circle><circle r="5" cx="90.31" cy="710.97" fill="#8b9ad9"></circle><circle r="5" cx="79.79" cy="819.79" fill="#8b9ad9"></circle><circle r="5" cx="205.6" cy="697.3" fill="#8b9ad9"></circle><circle r="5" cx="210" cy="836.51" fill="#8b9ad9"></circle><circle r="5" cx="359.43" cy="677.36" fill="#8b9ad9"></circle><circle r="5" cx="504.32" cy="688.81" fill="#8b9ad9"></circle><circle r="5" cx="517.47" cy="844.19" fill="#8b9ad9"></circle><circle r="5" cx="663.27" cy="503.13" fill="#8b9ad9"></circle><circle r="5" cx="690.08" cy="676.04" fill="#8b9ad9"></circle><circle r="5" cx="855.4" cy="549.78" fill="#8b9ad9"></circle><circle r="5" cx="844.07" cy="705.39" fill="#8b9ad9"></circle><circle r="5" cx="796.13" cy="835.1" fill="#8b9ad9"></circle><circle r="5" cx="952.1" cy="395.85" fill="#8b9ad9"></circle><circle r="5" cx="956.68" cy="654.29" fill="#8b9ad9"></circle><circle r="5" cx="982.31" cy="861.09" fill="#8b9ad9"></circle><circle r="5" cx="1142.76" cy="398.62" fill="#8b9ad9"></circle><circle r="5" cx="1155.05" cy="671.14" fill="#8b9ad9"></circle><circle r="5" cx="1110.81" cy="836.7" fill="#8b9ad9"></circle><circle r="5" cx="1274.24" cy="62.3" fill="#8b9ad9"></circle><circle r="5" cx="1307.65" cy="363.24" fill="#8b9ad9"></circle><circle r="5" cx="1268.75" cy="526.85" fill="#8b9ad9"></circle><circle r="5" cx="1287.53" cy="689.17" fill="#8b9ad9"></circle><circle r="5" cx="1423.76" cy="-62.63" fill="#8b9ad9"></circle><circle r="5" cx="1450.97" cy="91.01" fill="#8b9ad9"></circle><circle r="5" cx="1389" cy="233.06" fill="#8b9ad9"></circle><circle r="5" cx="1444.83" cy="395.09" fill="#8b9ad9"></circle><circle r="5" cx="1394.47" cy="557.25" fill="#8b9ad9"></circle><circle r="5" cx="1391.88" cy="809.43" fill="#8b9ad9"></circle><circle r="5" cx="1560.51" cy="-81.83" fill="#8b9ad9"></circle><circle r="5" cx="1587.05" cy="54.17" fill="#8b9ad9"></circle><circle r="5" cx="1575.17" cy="339.11" fill="#8b9ad9"></circle><circle r="5" cx="1560.08" cy="671.38" fill="#8b9ad9"></circle><circle r="5" cx="1560.68" cy="790.98" fill="#8b9ad9"></circle></g><defs><mask id="SvgjsMask1119"><rect width="1500" height="750" fill="#ffffff"></rect></mask><radialGradient id="SvgjsRadialGradient1120"><stop stop-color="#ffffff" offset="0.1"></stop><stop stop-color="#1735b3" offset="0.2"></stop><stop stop-color="rgba(23, 53, 179, 0)" offset="1"></stop></radialGradient></defs></svg>