<svg xmlns="http://www.w3.org/2000/svg" version="1.1" xmlns:xlink="http://www.w3.org/1999/xlink" xmlns:svgjs="http://svgjs.com/svgjs" width="1440" height="560" preserveAspectRatio="none" viewBox="0 0 1440 560"><g mask="url(&quot;#SvgjsMask1000&quot;)" fill="none"><rect width="1440" height="560" x="0" y="0" fill="#0e2a47"></rect><path d="M-46.71 366.03L-46.71 366.03" stroke="#132e65" stroke-width="1.5"></path><path d="M-46.71 366.03L-75.74 524.75" stroke="#132e65" stroke-width="1.5"></path><path d="M-46.71 366.03L45.71 510.37" stroke="#132e65" stroke-width="1.5"></path><path d="M-75.74 524.75L-75.74 524.75" stroke="#132e65" stroke-width="1.5"></path><path d="M-75.74 524.75L-83.04 638.1" stroke="#132e65" stroke-width="1.5"></path><path d="M-75.74 524.75L45.71 510.37" stroke="#132e65" stroke-width="1.5"></path><path d="M-75.74 524.75L108.73 679.36" stroke="#132e65" stroke-width="1.5"></path><path d="M-75.74 524.75L201.51 549.55" stroke="#132e65" stroke-width="1.5"></path><path d="M-83.04 638.1L-83.04 638.1" stroke="#132e65" stroke-width="1.5"></path><path d="M-83.04 638.1L45.71 510.37" stroke="#132e65" stroke-width="1.5"></path><path d="M-83.04 638.1L108.73 679.36" stroke="#132e65" stroke-width="1.5"></path><path d="M-83.04 638.1L-46.71 366.03" stroke="#132e65" stroke-width="1.5"></path><path d="M45.71 510.37L45.71 510.37" stroke="#132e65" stroke-width="1.5"></path><path d="M45.71 510.37L201.51 549.55" stroke="#132e65" stroke-width="1.5"></path><path d="M45.71 510.37L108.73 679.36" stroke="#132e65" stroke-width="1.5"></path><path d="M45.71 510.37L238.18 400.88" stroke="#132e65" stroke-width="1.5"></path><path d="M108.73 679.36L108.73 679.36" stroke="#132e65" stroke-width="1.5"></path><path d="M108.73 679.36L223.38 705.05" stroke="#132e65" stroke-width="1.5"></path><path d="M108.73 679.36L201.51 549.55" stroke="#132e65" stroke-width="1.5"></path><path d="M238.18 400.88L238.18 400.88" stroke="#132e65" stroke-width="1.5"></path><path d="M238.18 400.88L354.73 404.97" stroke="#132e65" stroke-width="1.5"></path><path d="M238.18 400.88L356.31 494.78" stroke="#132e65" stroke-width="1.5"></path><path d="M238.18 400.88L201.51 549.55" stroke="#132e65" stroke-width="1.5"></path><path d="M201.51 549.55L201.51 549.55" stroke="#132e65" stroke-width="1.5"></path><path d="M201.51 549.55L223.38 705.05" stroke="#132e65" stroke-width="1.5"></path><path d="M223.38 705.05L223.38 705.05" stroke="#132e65" stroke-width="1.5"></path><path d="M223.38 705.05L364.34 660.39" stroke="#132e65" stroke-width="1.5"></path><path d="M223.38 705.05L356.31 494.78" stroke="#132e65" stroke-width="1.5"></path><path d="M354.73 404.97L354.73 404.97" stroke="#132e65" stroke-width="1.5"></path><path d="M354.73 404.97L356.31 494.78" stroke="#132e65" stroke-width="1.5"></path><path d="M356.31 494.78L356.31 494.78" stroke="#132e65" stroke-width="1.5"></path><path d="M356.31 494.78L201.51 549.55" stroke="#132e65" stroke-width="1.5"></path><path d="M356.31 494.78L364.34 660.39" stroke="#132e65" stroke-width="1.5"></path><path d="M356.31 494.78L501.35 349.88" stroke="#132e65" stroke-width="1.5"></path><path d="M356.31 494.78L562.01 496.17" stroke="#132e65" stroke-width="1.5"></path><path d="M364.34 660.39L364.34 660.39" stroke="#132e65" stroke-width="1.5"></path><path d="M364.34 660.39L507.67 687.47" stroke="#132e65" stroke-width="1.5"></path><path d="M364.34 660.39L201.51 549.55" stroke="#132e65" stroke-width="1.5"></path><path d="M501.35 349.88L501.35 349.88" stroke="#132e65" stroke-width="1.5"></path><path d="M501.35 349.88L354.73 404.97" stroke="#132e65" stroke-width="1.5"></path><path d="M501.35 349.88L562.01 496.17" stroke="#132e65" stroke-width="1.5"></path><path d="M501.35 349.88L698.02 343.02" stroke="#132e65" stroke-width="1.5"></path><path d="M562.01 496.17L562.01 496.17" stroke="#132e65" stroke-width="1.5"></path><path d="M562.01 496.17L694.41 551.37" stroke="#132e65" stroke-width="1.5"></path><path d="M562.01 496.17L507.67 687.47" stroke="#132e65" stroke-width="1.5"></path><path d="M562.01 496.17L698.02 343.02" stroke="#132e65" stroke-width="1.5"></path><path d="M562.01 496.17L712.38 653.21" stroke="#132e65" stroke-width="1.5"></path><path d="M507.67 687.47L507.67 687.47" stroke="#132e65" stroke-width="1.5"></path><path d="M507.67 687.47L712.38 653.21" stroke="#132e65" stroke-width="1.5"></path><path d="M507.67 687.47L694.41 551.37" stroke="#132e65" stroke-width="1.5"></path><path d="M507.67 687.47L356.31 494.78" stroke="#132e65" stroke-width="1.5"></path><path d="M507.67 687.47L223.38 705.05" stroke="#132e65" stroke-width="1.5"></path><path d="M683.05 255.12L683.05 255.12" stroke="#132e65" stroke-width="1.5"></path><path d="M683.05 255.12L698.02 343.02" stroke="#132e65" stroke-width="1.5"></path><path d="M683.05 255.12L501.35 349.88" stroke="#132e65" stroke-width="1.5"></path><path d="M683.05 255.12L835.37 401.12" stroke="#132e65" stroke-width="1.5"></path><path d="M683.05 255.12L562.01 496.17" stroke="#132e65" stroke-width="1.5"></path><path d="M683.05 255.12L823.01 495.91" stroke="#132e65" stroke-width="1.5"></path><path d="M698.02 343.02L698.02 343.02" stroke="#132e65" stroke-width="1.5"></path><path d="M698.02 343.02L835.37 401.12" stroke="#132e65" stroke-width="1.5"></path><path d="M694.41 551.37L694.41 551.37" stroke="#132e65" stroke-width="1.5"></path><path d="M694.41 551.37L712.38 653.21" stroke="#132e65" stroke-width="1.5"></path><path d="M694.41 551.37L823.01 495.91" stroke="#132e65" stroke-width="1.5"></path><path d="M712.38 653.21L712.38 653.21" stroke="#132e65" stroke-width="1.5"></path><path d="M712.38 653.21L830.42 651.04" stroke="#132e65" stroke-width="1.5"></path><path d="M835.37 401.12L835.37 401.12" stroke="#132e65" stroke-width="1.5"></path><path d="M835.37 401.12L823.01 495.91" stroke="#132e65" stroke-width="1.5"></path><path d="M835.37 401.12L961.13 513.52" stroke="#132e65" stroke-width="1.5"></path><path d="M835.37 401.12L1008.27 403.17" stroke="#132e65" stroke-width="1.5"></path><path d="M835.37 401.12L694.41 551.37" stroke="#132e65" stroke-width="1.5"></path><path d="M823.01 495.91L823.01 495.91" stroke="#132e65" stroke-width="1.5"></path><path d="M823.01 495.91L961.13 513.52" stroke="#132e65" stroke-width="1.5"></path><path d="M830.42 651.04L830.42 651.04" stroke="#132e65" stroke-width="1.5"></path><path d="M830.42 651.04L959.62 647.6" stroke="#132e65" stroke-width="1.5"></path><path d="M830.42 651.04L823.01 495.91" stroke="#132e65" stroke-width="1.5"></path><path d="M830.42 651.04L694.41 551.37" stroke="#132e65" stroke-width="1.5"></path><path d="M830.42 651.04L961.13 513.52" stroke="#132e65" stroke-width="1.5"></path><path d="M830.42 651.04L835.37 401.12" stroke="#132e65" stroke-width="1.5"></path><path d="M980.58 -67.65L980.58 -67.65" stroke="#132e65" stroke-width="1.5"></path><path d="M980.58 -67.65L1091.64 -111.65" stroke="#132e65" stroke-width="1.5"></path><path d="M980.58 -67.65L1001.72 58.11" stroke="#132e65" stroke-width="1.5"></path><path d="M980.58 -67.65L1141.71 96.22" stroke="#132e65" stroke-width="1.5"></path><path d="M980.58 -67.65L998.98 219.32" stroke="#132e65" stroke-width="1.5"></path><path d="M1001.72 58.11L1001.72 58.11" stroke="#132e65" stroke-width="1.5"></path><path d="M1001.72 58.11L1141.71 96.22" stroke="#132e65" stroke-width="1.5"></path><path d="M1001.72 58.11L998.98 219.32" stroke="#132e65" stroke-width="1.5"></path><path d="M1001.72 58.11L1106.67 192.82" stroke="#132e65" stroke-width="1.5"></path><path d="M1001.72 58.11L1091.64 -111.65" stroke="#132e65" stroke-width="1.5"></path><path d="M1001.72 58.11L1286.8 86.12" stroke="#132e65" stroke-width="1.5"></path><path d="M998.98 219.32L998.98 219.32" stroke="#132e65" stroke-width="1.5"></path><path d="M998.98 219.32L1106.67 192.82" stroke="#132e65" stroke-width="1.5"></path><path d="M998.98 219.32L1008.27 403.17" stroke="#132e65" stroke-width="1.5"></path><path d="M998.98 219.32L1141.71 96.22" stroke="#132e65" stroke-width="1.5"></path><path d="M1008.27 403.17L1008.27 403.17" stroke="#132e65" stroke-width="1.5"></path><path d="M1008.27 403.17L961.13 513.52" stroke="#132e65" stroke-width="1.5"></path><path d="M1008.27 403.17L1130.78 497.44" stroke="#132e65" stroke-width="1.5"></path><path d="M1008.27 403.17L1161.01 370.39" stroke="#132e65" stroke-width="1.5"></path><path d="M1008.27 403.17L823.01 495.91" stroke="#132e65" stroke-width="1.5"></path><path d="M961.13 513.52L961.13 513.52" stroke="#132e65" stroke-width="1.5"></path><path d="M961.13 513.52L959.62 647.6" stroke="#132e65" stroke-width="1.5"></path><path d="M959.62 647.6L959.62 647.6" stroke="#132e65" stroke-width="1.5"></path><path d="M959.62 647.6L1137.39 707.25" stroke="#132e65" stroke-width="1.5"></path><path d="M959.62 647.6L823.01 495.91" stroke="#132e65" stroke-width="1.5"></path><path d="M959.62 647.6L1130.78 497.44" stroke="#132e65" stroke-width="1.5"></path><path d="M959.62 647.6L712.38 653.21" stroke="#132e65" stroke-width="1.5"></path><path d="M1091.64 -111.65L1091.64 -111.65" stroke="#132e65" stroke-width="1.5"></path><path d="M1091.64 -111.65L1279.76 -109.78" stroke="#132e65" stroke-width="1.5"></path><path d="M1091.64 -111.65L1141.71 96.22" stroke="#132e65" stroke-width="1.5"></path><path d="M1091.64 -111.65L1286.8 86.12" stroke="#132e65" stroke-width="1.5"></path><path d="M1091.64 -111.65L1106.67 192.82" stroke="#132e65" stroke-width="1.5"></path><path d="M1141.71 96.22L1141.71 96.22" stroke="#132e65" stroke-width="1.5"></path><path d="M1141.71 96.22L1106.67 192.82" stroke="#132e65" stroke-width="1.5"></path><path d="M1106.67 192.82L1106.67 192.82" stroke="#132e65" stroke-width="1.5"></path><path d="M1161.01 370.39L1161.01 370.39" stroke="#132e65" stroke-width="1.5"></path><path d="M1161.01 370.39L1280.81 353.33" stroke="#132e65" stroke-width="1.5"></path><path d="M1161.01 370.39L1130.78 497.44" stroke="#132e65" stroke-width="1.5"></path><path d="M1161.01 370.39L1278.75 260.2" stroke="#132e65" stroke-width="1.5"></path><path d="M1161.01 370.39L1106.67 192.82" stroke="#132e65" stroke-width="1.5"></path><path d="M1130.78 497.44L1130.78 497.44" stroke="#132e65" stroke-width="1.5"></path><path d="M1130.78 497.44L1269.47 527.55" stroke="#132e65" stroke-width="1.5"></path><path d="M1130.78 497.44L961.13 513.52" stroke="#132e65" stroke-width="1.5"></path><path d="M1130.78 497.44L1250.53 640.67" stroke="#132e65" stroke-width="1.5"></path><path d="M1130.78 497.44L1280.81 353.33" stroke="#132e65" stroke-width="1.5"></path><path d="M1137.39 707.25L1137.39 707.25" stroke="#132e65" stroke-width="1.5"></path><path d="M1137.39 707.25L1250.53 640.67" stroke="#132e65" stroke-width="1.5"></path><path d="M1279.76 -109.78L1279.76 -109.78" stroke="#132e65" stroke-width="1.5"></path><path d="M1279.76 -109.78L1421.17 -41.03" stroke="#132e65" stroke-width="1.5"></path><path d="M1286.8 86.12L1286.8 86.12" stroke="#132e65" stroke-width="1.5"></path><path d="M1286.8 86.12L1141.71 96.22" stroke="#132e65" stroke-width="1.5"></path><path d="M1286.8 86.12L1447.96 93.69" stroke="#132e65" stroke-width="1.5"></path><path d="M1278.75 260.2L1278.75 260.2" stroke="#132e65" stroke-width="1.5"></path><path d="M1278.75 260.2L1280.81 353.33" stroke="#132e65" stroke-width="1.5"></path><path d="M1278.75 260.2L1286.8 86.12" stroke="#132e65" stroke-width="1.5"></path><path d="M1280.81 353.33L1280.81 353.33" stroke="#132e65" stroke-width="1.5"></path><path d="M1280.81 353.33L1389.28 407.61" stroke="#132e65" stroke-width="1.5"></path><path d="M1280.81 353.33L1269.47 527.55" stroke="#132e65" stroke-width="1.5"></path><path d="M1269.47 527.55L1269.47 527.55" stroke="#132e65" stroke-width="1.5"></path><path d="M1269.47 527.55L1250.53 640.67" stroke="#132e65" stroke-width="1.5"></path><path d="M1250.53 640.67L1250.53 640.67" stroke="#132e65" stroke-width="1.5"></path><path d="M1421.17 -41.03L1421.17 -41.03" stroke="#132e65" stroke-width="1.5"></path><path d="M1421.17 -41.03L1447.96 93.69" stroke="#132e65" stroke-width="1.5"></path><path d="M1421.17 -41.03L1562.57 -39.17" stroke="#132e65" stroke-width="1.5"></path><path d="M1421.17 -41.03L1286.8 86.12" stroke="#132e65" stroke-width="1.5"></path><path d="M1447.96 93.69L1447.96 93.69" stroke="#132e65" stroke-width="1.5"></path><path d="M1447.96 93.69L1548.11 191.24" stroke="#132e65" stroke-width="1.5"></path><path d="M1447.96 93.69L1588.71 49.57" stroke="#132e65" stroke-width="1.5"></path><path d="M1447.96 93.69L1562.57 -39.17" stroke="#132e65" stroke-width="1.5"></path><path d="M1389.28 407.61L1389.28 407.61" stroke="#132e65" stroke-width="1.5"></path><path d="M1389.28 407.61L1445.68 506.23" stroke="#132e65" stroke-width="1.5"></path><path d="M1389.28 407.61L1269.47 527.55" stroke="#132e65" stroke-width="1.5"></path><path d="M1445.68 506.23L1445.68 506.23" stroke="#132e65" stroke-width="1.5"></path><path d="M1445.68 506.23L1551.92 508.69" stroke="#132e65" stroke-width="1.5"></path><path d="M1409.15 695.43L1409.15 695.43" stroke="#132e65" stroke-width="1.5"></path><path d="M1409.15 695.43L1250.53 640.67" stroke="#132e65" stroke-width="1.5"></path><path d="M1409.15 695.43L1590.62 653.45" stroke="#132e65" stroke-width="1.5"></path><path d="M1409.15 695.43L1445.68 506.23" stroke="#132e65" stroke-width="1.5"></path><path d="M1562.57 -39.17L1562.57 -39.17" stroke="#132e65" stroke-width="1.5"></path><path d="M1562.57 -39.17L1588.71 49.57" stroke="#132e65" stroke-width="1.5"></path><path d="M1562.57 -39.17L1548.11 191.24" stroke="#132e65" stroke-width="1.5"></path><path d="M1588.71 49.57L1588.71 49.57" stroke="#132e65" stroke-width="1.5"></path><path d="M1588.71 49.57L1548.11 191.24" stroke="#132e65" stroke-width="1.5"></path><path d="M1548.11 191.24L1548.11 191.24" stroke="#132e65" stroke-width="1.5"></path><path d="M1548.11 191.24L1591.13 410.38" stroke="#132e65" stroke-width="1.5"></path><path d="M1591.13 410.38L1591.13 410.38" stroke="#132e65" stroke-width="1.5"></path><path d="M1591.13 410.38L1551.92 508.69" stroke="#132e65" stroke-width="1.5"></path><path d="M1591.13 410.38L1445.68 506.23" stroke="#132e65" stroke-width="1.5"></path><path d="M1551.92 508.69L1551.92 508.69" stroke="#132e65" stroke-width="1.5"></path><path d="M1551.92 508.69L1590.62 653.45" stroke="#132e65" stroke-width="1.5"></path><path d="M1590.62 653.45L1590.62 653.45" stroke="#132e65" stroke-width="1.5"></path><path d="M1590.62 653.45L1445.68 506.23" stroke="#132e65" stroke-width="1.5"></path><circle r="5" cx="-46.71" cy="366.03" fill="#132e65"></circle><circle r="5" cx="-75.74" cy="524.75" fill="#132e65"></circle><circle r="5" cx="-83.04" cy="638.1" fill="#132e65"></circle><circle r="5" cx="45.71" cy="510.37" fill="#132e65"></circle><circle r="5" cx="108.73" cy="679.36" fill="#132e65"></circle><circle r="5" cx="238.18" cy="400.88" fill="#132e65"></circle><circle r="5" cx="201.51" cy="549.55" fill="#132e65"></circle><circle r="5" cx="223.38" cy="705.05" fill="#132e65"></circle><circle r="5" cx="354.73" cy="404.97" fill="#132e65"></circle><circle r="5" cx="356.31" cy="494.78" fill="#132e65"></circle><circle r="5" cx="364.34" cy="660.39" fill="#132e65"></circle><circle r="5" cx="501.35" cy="349.88" fill="#132e65"></circle><circle r="5" cx="562.01" cy="496.17" fill="#132e65"></circle><circle r="5" cx="507.67" cy="687.47" fill="#132e65"></circle><circle r="5" cx="683.05" cy="255.12" fill="#132e65"></circle><circle r="5" cx="698.02" cy="343.02" fill="#132e65"></circle><circle r="5" cx="694.41" cy="551.37" fill="#132e65"></circle><circle r="5" cx="712.38" cy="653.21" fill="#132e65"></circle><circle r="5" cx="835.37" cy="401.12" fill="#132e65"></circle><circle r="5" cx="823.01" cy="495.91" fill="#132e65"></circle><circle r="5" cx="830.42" cy="651.04" fill="#132e65"></circle><circle r="5" cx="980.58" cy="-67.65" fill="#132e65"></circle><circle r="5" cx="1001.72" cy="58.11" fill="#132e65"></circle><circle r="5" cx="998.98" cy="219.32" fill="#132e65"></circle><circle r="5" cx="1008.27" cy="403.17" fill="#132e65"></circle><circle r="5" cx="961.13" cy="513.52" fill="#132e65"></circle><circle r="5" cx="959.62" cy="647.6" fill="#132e65"></circle><circle r="5" cx="1091.64" cy="-111.65" fill="#132e65"></circle><circle r="5" cx="1141.71" cy="96.22" fill="#132e65"></circle><circle r="5" cx="1106.67" cy="192.82" fill="#132e65"></circle><circle r="5" cx="1161.01" cy="370.39" fill="#132e65"></circle><circle r="5" cx="1130.78" cy="497.44" fill="#132e65"></circle><circle r="5" cx="1137.39" cy="707.25" fill="#132e65"></circle><circle r="5" cx="1279.76" cy="-109.78" fill="#132e65"></circle><circle r="5" cx="1286.8" cy="86.12" fill="#132e65"></circle><circle r="5" cx="1278.75" cy="260.2" fill="#132e65"></circle><circle r="5" cx="1280.81" cy="353.33" fill="#132e65"></circle><circle r="5" cx="1269.47" cy="527.55" fill="#132e65"></circle><circle r="5" cx="1250.53" cy="640.67" fill="#132e65"></circle><circle r="5" cx="1421.17" cy="-41.03" fill="#132e65"></circle><circle r="5" cx="1447.96" cy="93.69" fill="#132e65"></circle><circle r="5" cx="1389.28" cy="407.61" fill="#132e65"></circle><circle r="5" cx="1445.68" cy="506.23" fill="#132e65"></circle><circle r="5" cx="1409.15" cy="695.43" fill="#132e65"></circle><circle r="5" cx="1562.57" cy="-39.17" fill="#132e65"></circle><circle r="5" cx="1588.71" cy="49.57" fill="#132e65"></circle><circle r="5" cx="1548.11" cy="191.24" fill="#132e65"></circle><circle r="5" cx="1591.13" cy="410.38" fill="#132e65"></circle><circle r="5" cx="1551.92" cy="508.69" fill="#132e65"></circle><circle r="5" cx="1590.62" cy="653.45" fill="#132e65"></circle><path d="M507.1 699.28L507.1 699.28" stroke="hsl(228.5, 77.2%, 51.5%)" stroke-width="1.5"></path><path d="M507.1 699.28L402.55 698.6" stroke="hsl(228.5, 77.2%, 51.5%)" stroke-width="1.5"></path><path d="M507.1 699.28L653.73 688.16" stroke="hsl(228.5, 77.2%, 51.5%)" stroke-width="1.5"></path><path d="M507.1 699.28L411.1 558.98" stroke="hsl(228.5, 77.2%, 51.5%)" stroke-width="1.5"></path><path d="M507.1 699.28L551.69 495.99" stroke="hsl(228.5, 77.2%, 51.5%)" stroke-width="1.5"></path><path d="M1005.05 339.23L1005.05 339.23" stroke="hsl(228.5, 77.2%, 51.5%)" stroke-width="1.5"></path><path d="M1005.05 339.23L1095.42 377.75" stroke="hsl(228.5, 77.2%, 51.5%)" stroke-width="1.5"></path><path d="M1005.05 339.23L1003.42 237.59" stroke="hsl(228.5, 77.2%, 51.5%)" stroke-width="1.5"></path><path d="M1005.05 339.23L1128.42 221.37" stroke="hsl(228.5, 77.2%, 51.5%)" stroke-width="1.5"></path><path d="M1005.05 339.23L840.54 389.38" stroke="hsl(228.5, 77.2%, 51.5%)" stroke-width="1.5"></path><path d="M1392.9 380.81L1392.9 380.81" stroke="hsl(228.5, 77.2%, 51.5%)" stroke-width="1.5"></path><path d="M1392.9 380.81L1394.81 496.65" stroke="hsl(228.5, 77.2%, 51.5%)" stroke-width="1.5"></path><path d="M1392.9 380.81L1555.34 344.98" stroke="hsl(228.5, 77.2%, 51.5%)" stroke-width="1.5"></path><path d="M1392.9 380.81L1257.1 493.32" stroke="hsl(228.5, 77.2%, 51.5%)" stroke-width="1.5"></path><path d="M1392.9 380.81L1415.88 203.53" stroke="hsl(228.5, 77.2%, 51.5%)" stroke-width="1.5"></path><path d="M1392.9 380.81L1575.07 504.72" stroke="hsl(228.5, 77.2%, 51.5%)" stroke-width="1.5"></path><path d="M1392.9 380.81L1600.14 230.66" stroke="hsl(228.5, 77.2%, 51.5%)" stroke-width="1.5"></path><path d="M1394.81 496.65L1394.81 496.65" stroke="hsl(228.5, 77.2%, 51.5%)" stroke-width="1.5"></path><path d="M1394.81 496.65L1257.1 493.32" stroke="hsl(228.5, 77.2%, 51.5%)" stroke-width="1.5"></path><path d="M1394.81 496.65L1575.07 504.72" stroke="hsl(228.5, 77.2%, 51.5%)" stroke-width="1.5"></path><path d="M1394.81 496.65L1447.4 672.99" stroke="hsl(228.5, 77.2%, 51.5%)" stroke-width="1.5"></path><path d="M1447.4 672.99L1447.4 672.99" stroke="hsl(228.5, 77.2%, 51.5%)" stroke-width="1.5"></path><path d="M1447.4 672.99L1569.97 644.58" stroke="hsl(228.5, 77.2%, 51.5%)" stroke-width="1.5"></path><path d="M1447.4 672.99L1306.86 664.46" stroke="hsl(228.5, 77.2%, 51.5%)" stroke-width="1.5"></path><path d="M1447.4 672.99L1575.07 504.72" stroke="hsl(228.5, 77.2%, 51.5%)" stroke-width="1.5"></path><path d="M-83.68 709.25L-83.68 709.25" stroke="hsl(228.5, 77.2%, 51.5%)" stroke-width="1.5"></path><path d="M-83.68 709.25L100.73 708.68" stroke="hsl(228.5, 77.2%, 51.5%)" stroke-width="1.5"></path><path d="M-83.68 709.25L41.14 510.02" stroke="hsl(228.5, 77.2%, 51.5%)" stroke-width="1.5"></path><path d="M-83.68 709.25L256.47 695.17" stroke="hsl(228.5, 77.2%, 51.5%)" stroke-width="1.5"></path><path d="M41.14 510.02L41.14 510.02" stroke="hsl(228.5, 77.2%, 51.5%)" stroke-width="1.5"></path><path d="M41.14 510.02L188.74 501.06" stroke="hsl(228.5, 77.2%, 51.5%)" stroke-width="1.5"></path><path d="M41.14 510.02L100.73 708.68" stroke="hsl(228.5, 77.2%, 51.5%)" stroke-width="1.5"></path><path d="M41.14 510.02L256.47 695.17" stroke="hsl(228.5, 77.2%, 51.5%)" stroke-width="1.5"></path><path d="M41.14 510.02L411.1 558.98" stroke="hsl(228.5, 77.2%, 51.5%)" stroke-width="1.5"></path><path d="M41.14 510.02L402.55 698.6" stroke="hsl(228.5, 77.2%, 51.5%)" stroke-width="1.5"></path><path d="M100.73 708.68L100.73 708.68" stroke="hsl(228.5, 77.2%, 51.5%)" stroke-width="1.5"></path><path d="M100.73 708.68L256.47 695.17" stroke="hsl(228.5, 77.2%, 51.5%)" stroke-width="1.5"></path><path d="M188.74 501.06L188.74 501.06" stroke="hsl(228.5, 77.2%, 51.5%)" stroke-width="1.5"></path><path d="M188.74 501.06L256.47 695.17" stroke="hsl(228.5, 77.2%, 51.5%)" stroke-width="1.5"></path><path d="M256.47 695.17L256.47 695.17" stroke="hsl(228.5, 77.2%, 51.5%)" stroke-width="1.5"></path><path d="M256.47 695.17L402.55 698.6" stroke="hsl(228.5, 77.2%, 51.5%)" stroke-width="1.5"></path><path d="M256.47 695.17L411.1 558.98" stroke="hsl(228.5, 77.2%, 51.5%)" stroke-width="1.5"></path><path d="M256.47 695.17L507.1 699.28" stroke="hsl(228.5, 77.2%, 51.5%)" stroke-width="1.5"></path><path d="M411.1 558.98L411.1 558.98" stroke="hsl(228.5, 77.2%, 51.5%)" stroke-width="1.5"></path><path d="M411.1 558.98L402.55 698.6" stroke="hsl(228.5, 77.2%, 51.5%)" stroke-width="1.5"></path><path d="M411.1 558.98L551.69 495.99" stroke="hsl(228.5, 77.2%, 51.5%)" stroke-width="1.5"></path><path d="M411.1 558.98L511.93 404.95" stroke="hsl(228.5, 77.2%, 51.5%)" stroke-width="1.5"></path><path d="M411.1 558.98L188.74 501.06" stroke="hsl(228.5, 77.2%, 51.5%)" stroke-width="1.5"></path><path d="M402.55 698.6L402.55 698.6" stroke="hsl(228.5, 77.2%, 51.5%)" stroke-width="1.5"></path><path d="M402.55 698.6L653.73 688.16" stroke="hsl(228.5, 77.2%, 51.5%)" stroke-width="1.5"></path><path d="M402.55 698.6L551.69 495.99" stroke="hsl(228.5, 77.2%, 51.5%)" stroke-width="1.5"></path><path d="M402.55 698.6L188.74 501.06" stroke="hsl(228.5, 77.2%, 51.5%)" stroke-width="1.5"></path><path d="M511.93 404.95L511.93 404.95" stroke="hsl(228.5, 77.2%, 51.5%)" stroke-width="1.5"></path><path d="M511.93 404.95L551.69 495.99" stroke="hsl(228.5, 77.2%, 51.5%)" stroke-width="1.5"></path><path d="M511.93 404.95L678.02 390.78" stroke="hsl(228.5, 77.2%, 51.5%)" stroke-width="1.5"></path><path d="M511.93 404.95L700.46 553.62" stroke="hsl(228.5, 77.2%, 51.5%)" stroke-width="1.5"></path><path d="M511.93 404.95L507.1 699.28" stroke="hsl(228.5, 77.2%, 51.5%)" stroke-width="1.5"></path><path d="M551.69 495.99L551.69 495.99" stroke="hsl(228.5, 77.2%, 51.5%)" stroke-width="1.5"></path><path d="M551.69 495.99L700.46 553.62" stroke="hsl(228.5, 77.2%, 51.5%)" stroke-width="1.5"></path><path d="M551.69 495.99L678.02 390.78" stroke="hsl(228.5, 77.2%, 51.5%)" stroke-width="1.5"></path><path d="M678.02 390.78L678.02 390.78" stroke="hsl(228.5, 77.2%, 51.5%)" stroke-width="1.5"></path><path d="M678.02 390.78L791.77 500.87" stroke="hsl(228.5, 77.2%, 51.5%)" stroke-width="1.5"></path><path d="M678.02 390.78L840.54 389.38" stroke="hsl(228.5, 77.2%, 51.5%)" stroke-width="1.5"></path><path d="M678.02 390.78L700.46 553.62" stroke="hsl(228.5, 77.2%, 51.5%)" stroke-width="1.5"></path><path d="M700.46 553.62L700.46 553.62" stroke="hsl(228.5, 77.2%, 51.5%)" stroke-width="1.5"></path><path d="M700.46 553.62L791.77 500.87" stroke="hsl(228.5, 77.2%, 51.5%)" stroke-width="1.5"></path><path d="M700.46 553.62L653.73 688.16" stroke="hsl(228.5, 77.2%, 51.5%)" stroke-width="1.5"></path><path d="M653.73 688.16L653.73 688.16" stroke="hsl(228.5, 77.2%, 51.5%)" stroke-width="1.5"></path><path d="M840.54 389.38L840.54 389.38" stroke="hsl(228.5, 77.2%, 51.5%)" stroke-width="1.5"></path><path d="M840.54 389.38L791.77 500.87" stroke="hsl(228.5, 77.2%, 51.5%)" stroke-width="1.5"></path><path d="M791.77 500.87L791.77 500.87" stroke="hsl(228.5, 77.2%, 51.5%)" stroke-width="1.5"></path><path d="M791.77 500.87L1002.54 532.17" stroke="hsl(228.5, 77.2%, 51.5%)" stroke-width="1.5"></path><path d="M791.77 500.87L653.73 688.16" stroke="hsl(228.5, 77.2%, 51.5%)" stroke-width="1.5"></path><path d="M1003.42 237.59L1003.42 237.59" stroke="hsl(228.5, 77.2%, 51.5%)" stroke-width="1.5"></path><path d="M1003.42 237.59L1128.42 221.37" stroke="hsl(228.5, 77.2%, 51.5%)" stroke-width="1.5"></path><path d="M1003.42 237.59L1095.42 377.75" stroke="hsl(228.5, 77.2%, 51.5%)" stroke-width="1.5"></path><path d="M1003.42 237.59L840.54 389.38" stroke="hsl(228.5, 77.2%, 51.5%)" stroke-width="1.5"></path><path d="M1002.54 532.17L1002.54 532.17" stroke="hsl(228.5, 77.2%, 51.5%)" stroke-width="1.5"></path><path d="M1002.54 532.17L1105.14 487.61" stroke="hsl(228.5, 77.2%, 51.5%)" stroke-width="1.5"></path><path d="M1002.54 532.17L1133.83 650.14" stroke="hsl(228.5, 77.2%, 51.5%)" stroke-width="1.5"></path><path d="M1002.54 532.17L1095.42 377.75" stroke="hsl(228.5, 77.2%, 51.5%)" stroke-width="1.5"></path><path d="M1002.54 532.17L938.17 700.96" stroke="hsl(228.5, 77.2%, 51.5%)" stroke-width="1.5"></path><path d="M1002.54 532.17L1005.05 339.23" stroke="hsl(228.5, 77.2%, 51.5%)" stroke-width="1.5"></path><path d="M938.17 700.96L938.17 700.96" stroke="hsl(228.5, 77.2%, 51.5%)" stroke-width="1.5"></path><path d="M938.17 700.96L1133.83 650.14" stroke="hsl(228.5, 77.2%, 51.5%)" stroke-width="1.5"></path><path d="M1155.01 42.64L1155.01 42.64" stroke="hsl(228.5, 77.2%, 51.5%)" stroke-width="1.5"></path><path d="M1155.01 42.64L1242.23 94.28" stroke="hsl(228.5, 77.2%, 51.5%)" stroke-width="1.5"></path><path d="M1155.01 42.64L1128.42 221.37" stroke="hsl(228.5, 77.2%, 51.5%)" stroke-width="1.5"></path><path d="M1155.01 42.64L1288.55 -86.18" stroke="hsl(228.5, 77.2%, 51.5%)" stroke-width="1.5"></path><path d="M1155.01 42.64L1003.42 237.59" stroke="hsl(228.5, 77.2%, 51.5%)" stroke-width="1.5"></path><path d="M1128.42 221.37L1128.42 221.37" stroke="hsl(228.5, 77.2%, 51.5%)" stroke-width="1.5"></path><path d="M1095.42 377.75L1095.42 377.75" stroke="hsl(228.5, 77.2%, 51.5%)" stroke-width="1.5"></path><path d="M1095.42 377.75L1105.14 487.61" stroke="hsl(228.5, 77.2%, 51.5%)" stroke-width="1.5"></path><path d="M1095.42 377.75L1128.42 221.37" stroke="hsl(228.5, 77.2%, 51.5%)" stroke-width="1.5"></path><path d="M1105.14 487.61L1105.14 487.61" stroke="hsl(228.5, 77.2%, 51.5%)" stroke-width="1.5"></path><path d="M1133.83 650.14L1133.83 650.14" stroke="hsl(228.5, 77.2%, 51.5%)" stroke-width="1.5"></path><path d="M1133.83 650.14L1105.14 487.61" stroke="hsl(228.5, 77.2%, 51.5%)" stroke-width="1.5"></path><path d="M1133.83 650.14L1306.86 664.46" stroke="hsl(228.5, 77.2%, 51.5%)" stroke-width="1.5"></path><path d="M1288.55 -86.18L1288.55 -86.18" stroke="hsl(228.5, 77.2%, 51.5%)" stroke-width="1.5"></path><path d="M1288.55 -86.18L1459.77 -58.4" stroke="hsl(228.5, 77.2%, 51.5%)" stroke-width="1.5"></path><path d="M1288.55 -86.18L1242.23 94.28" stroke="hsl(228.5, 77.2%, 51.5%)" stroke-width="1.5"></path><path d="M1288.55 -86.18L1446.62 80.17" stroke="hsl(228.5, 77.2%, 51.5%)" stroke-width="1.5"></path><path d="M1288.55 -86.18L1578.62 -75.94" stroke="hsl(228.5, 77.2%, 51.5%)" stroke-width="1.5"></path><path d="M1242.23 94.28L1242.23 94.28" stroke="hsl(228.5, 77.2%, 51.5%)" stroke-width="1.5"></path><path d="M1242.23 94.28L1128.42 221.37" stroke="hsl(228.5, 77.2%, 51.5%)" stroke-width="1.5"></path><path d="M1242.23 94.28L1446.62 80.17" stroke="hsl(228.5, 77.2%, 51.5%)" stroke-width="1.5"></path><path d="M1242.23 94.28L1415.88 203.53" stroke="hsl(228.5, 77.2%, 51.5%)" stroke-width="1.5"></path><path d="M1257.1 493.32L1257.1 493.32" stroke="hsl(228.5, 77.2%, 51.5%)" stroke-width="1.5"></path><path d="M1257.1 493.32L1105.14 487.61" stroke="hsl(228.5, 77.2%, 51.5%)" stroke-width="1.5"></path><path d="M1306.86 664.46L1306.86 664.46" stroke="hsl(228.5, 77.2%, 51.5%)" stroke-width="1.5"></path><path d="M1306.86 664.46L1257.1 493.32" stroke="hsl(228.5, 77.2%, 51.5%)" stroke-width="1.5"></path><path d="M1306.86 664.46L1394.81 496.65" stroke="hsl(228.5, 77.2%, 51.5%)" stroke-width="1.5"></path><path d="M1306.86 664.46L1569.97 644.58" stroke="hsl(228.5, 77.2%, 51.5%)" stroke-width="1.5"></path><path d="M1306.86 664.46L1105.14 487.61" stroke="hsl(228.5, 77.2%, 51.5%)" stroke-width="1.5"></path><path d="M1459.77 -58.4L1459.77 -58.4" stroke="hsl(228.5, 77.2%, 51.5%)" stroke-width="1.5"></path><path d="M1459.77 -58.4L1578.62 -75.94" stroke="hsl(228.5, 77.2%, 51.5%)" stroke-width="1.5"></path><path d="M1459.77 -58.4L1446.62 80.17" stroke="hsl(228.5, 77.2%, 51.5%)" stroke-width="1.5"></path><path d="M1459.77 -58.4L1538.44 80.55" stroke="hsl(228.5, 77.2%, 51.5%)" stroke-width="1.5"></path><path d="M1459.77 -58.4L1415.88 203.53" stroke="hsl(228.5, 77.2%, 51.5%)" stroke-width="1.5"></path><path d="M1446.62 80.17L1446.62 80.17" stroke="hsl(228.5, 77.2%, 51.5%)" stroke-width="1.5"></path><path d="M1446.62 80.17L1538.44 80.55" stroke="hsl(228.5, 77.2%, 51.5%)" stroke-width="1.5"></path><path d="M1446.62 80.17L1415.88 203.53" stroke="hsl(228.5, 77.2%, 51.5%)" stroke-width="1.5"></path><path d="M1415.88 203.53L1415.88 203.53" stroke="hsl(228.5, 77.2%, 51.5%)" stroke-width="1.5"></path><path d="M1415.88 203.53L1538.44 80.55" stroke="hsl(228.5, 77.2%, 51.5%)" stroke-width="1.5"></path><path d="M1415.88 203.53L1600.14 230.66" stroke="hsl(228.5, 77.2%, 51.5%)" stroke-width="1.5"></path><path d="M1415.88 203.53L1555.34 344.98" stroke="hsl(228.5, 77.2%, 51.5%)" stroke-width="1.5"></path><path d="M1578.62 -75.94L1578.62 -75.94" stroke="hsl(228.5, 77.2%, 51.5%)" stroke-width="1.5"></path><path d="M1578.62 -75.94L1538.44 80.55" stroke="hsl(228.5, 77.2%, 51.5%)" stroke-width="1.5"></path><path d="M1538.44 80.55L1538.44 80.55" stroke="hsl(228.5, 77.2%, 51.5%)" stroke-width="1.5"></path><path d="M1538.44 80.55L1600.14 230.66" stroke="hsl(228.5, 77.2%, 51.5%)" stroke-width="1.5"></path><path d="M1600.14 230.66L1600.14 230.66" stroke="hsl(228.5, 77.2%, 51.5%)" stroke-width="1.5"></path><path d="M1600.14 230.66L1555.34 344.98" stroke="hsl(228.5, 77.2%, 51.5%)" stroke-width="1.5"></path><path d="M1555.34 344.98L1555.34 344.98" stroke="hsl(228.5, 77.2%, 51.5%)" stroke-width="1.5"></path><path d="M1555.34 344.98L1575.07 504.72" stroke="hsl(228.5, 77.2%, 51.5%)" stroke-width="1.5"></path><path d="M1555.34 344.98L1394.81 496.65" stroke="hsl(228.5, 77.2%, 51.5%)" stroke-width="1.5"></path><path d="M1575.07 504.72L1575.07 504.72" stroke="hsl(228.5, 77.2%, 51.5%)" stroke-width="1.5"></path><path d="M1575.07 504.72L1569.97 644.58" stroke="hsl(228.5, 77.2%, 51.5%)" stroke-width="1.5"></path><path d="M1569.97 644.58L1569.97 644.58" stroke="hsl(228.5, 77.2%, 51.5%)" stroke-width="1.5"></path><path d="M1569.97 644.58L1394.81 496.65" stroke="hsl(228.5, 77.2%, 51.5%)" stroke-width="1.5"></path><path d="M1569.97 644.58L1555.34 344.98" stroke="hsl(228.5, 77.2%, 51.5%)" stroke-width="1.5"></path><circle r="25" cx="507.1" cy="699.28" fill="url(#SvgjsRadialGradient1001)"></circle><circle r="25" cx="1005.05" cy="339.23" fill="url(#SvgjsRadialGradient1001)"></circle><circle r="25" cx="1392.9" cy="380.81" fill="url(#SvgjsRadialGradient1001)"></circle><circle r="25" cx="1394.81" cy="496.65" fill="url(#SvgjsRadialGradient1001)"></circle><circle r="25" cx="1447.4" cy="672.99" fill="url(#SvgjsRadialGradient1001)"></circle><circle r="5" cx="-83.68" cy="709.25" fill="#8b9ad9"></circle><circle r="5" cx="41.14" cy="510.02" fill="#8b9ad9"></circle><circle r="5" cx="100.73" cy="708.68" fill="#8b9ad9"></circle><circle r="5" cx="188.74" cy="501.06" fill="#8b9ad9"></circle><circle r="5" cx="256.47" cy="695.17" fill="#8b9ad9"></circle><circle r="5" cx="411.1" cy="558.98" fill="#8b9ad9"></circle><circle r="5" cx="402.55" cy="698.6" fill="#8b9ad9"></circle><circle r="5" cx="511.93" cy="404.95" fill="#8b9ad9"></circle><circle r="5" cx="551.69" cy="495.99" fill="#8b9ad9"></circle><circle r="5" cx="678.02" cy="390.78" fill="#8b9ad9"></circle><circle r="5" cx="700.46" cy="553.62" fill="#8b9ad9"></circle><circle r="5" cx="653.73" cy="688.16" fill="#8b9ad9"></circle><circle r="5" cx="840.54" cy="389.38" fill="#8b9ad9"></circle><circle r="5" cx="791.77" cy="500.87" fill="#8b9ad9"></circle><circle r="5" cx="1003.42" cy="237.59" fill="#8b9ad9"></circle><circle r="5" cx="1002.54" cy="532.17" fill="#8b9ad9"></circle><circle r="5" cx="938.17" cy="700.96" fill="#8b9ad9"></circle><circle r="5" cx="1155.01" cy="42.64" fill="#8b9ad9"></circle><circle r="5" cx="1128.42" cy="221.37" fill="#8b9ad9"></circle><circle r="5" cx="1095.42" cy="377.75" fill="#8b9ad9"></circle><circle r="5" cx="1105.14" cy="487.61" fill="#8b9ad9"></circle><circle r="5" cx="1133.83" cy="650.14" fill="#8b9ad9"></circle><circle r="5" cx="1288.55" cy="-86.18" fill="#8b9ad9"></circle><circle r="5" cx="1242.23" cy="94.28" fill="#8b9ad9"></circle><circle r="5" cx="1257.1" cy="493.32" fill="#8b9ad9"></circle><circle r="5" cx="1306.86" cy="664.46" fill="#8b9ad9"></circle><circle r="5" cx="1459.77" cy="-58.4" fill="#8b9ad9"></circle><circle r="5" cx="1446.62" cy="80.17" fill="#8b9ad9"></circle><circle r="5" cx="1415.88" cy="203.53" fill="#8b9ad9"></circle><circle r="5" cx="1578.62" cy="-75.94" fill="#8b9ad9"></circle><circle r="5" cx="1538.44" cy="80.55" fill="#8b9ad9"></circle><circle r="5" cx="1600.14" cy="230.66" fill="#8b9ad9"></circle><circle r="5" cx="1555.34" cy="344.98" fill="#8b9ad9"></circle><circle r="5" cx="1575.07" cy="504.72" fill="#8b9ad9"></circle><circle r="5" cx="1569.97" cy="644.58" fill="#8b9ad9"></circle></g><defs><mask id="SvgjsMask1000"><rect width="1440" height="560" fill="#ffffff"></rect></mask><radialGradient id="SvgjsRadialGradient1001"><stop stop-color="#ffffff" offset="0.1"></stop><stop stop-color="#1735b3" offset="0.2"></stop><stop stop-color="rgba(23, 53, 179, 0)" offset="1"></stop></radialGradient></defs></svg>